<svg width="24" height="25" viewBox="0 0 24 25" fill="none" xmlns="http://www.w3.org/2000/svg">
<path d="M23.8565 7.68014C22.7659 5.02822 20.7896 2.83648 18.2642 1.47836C15.7388 0.120249 12.8207 -0.320212 10.0069 0.232032C7.19322 0.784276 4.65803 2.29505 2.83334 4.50695C1.00864 6.71885 0.00733758 9.495 4.01369e-05 12.3624C-0.0072573 15.2298 0.979901 18.011 2.79332 20.2322C4.60673 22.4533 7.1342 23.977 9.94507 24.5435C12.7559 25.1101 15.6763 24.6845 18.2086 23.3393C20.7408 21.994 22.7283 19.8124 23.8323 17.166L12.3939 12.3939L23.8565 7.68014Z" fill="url(#paint0_linear_19207_1826)"/>
<defs>
<linearGradient id="paint0_linear_19207_1826" x1="24.6891" y1="10.7816" x2="0.0892788" y2="10.968" gradientUnits="userSpaceOnUse">
<stop stop-color="#7A87FB"/>
<stop offset="1" stop-color="#FFD49C"/>
</linearGradient>
</defs>
</svg>
